# Blender v2.78 (sub 0) OBJ File: 'cheval-rigged.blend'
# www.blender.org
mtllib horse.mtl
o Cube
v -0.200000 3.298585 -2.602961
v -0.200000 3.537067 -2.281828
v -0.200000 4.904251 -3.795370
v -0.200000 5.142733 -3.474236
v 0.200000 3.298585 -2.602961
v 0.200000 3.537067 -2.281828
v 0.200000 4.904251 -3.795370
v 0.200000 5.142733 -3.474236
v -0.386215 5.992410 2.985448
v -0.377604 6.625716 2.940990
v -0.417500 6.089640 2.699411
v -0.382358 6.640491 2.897524
v -0.090204 6.059772 2.975970
v -0.333732 6.635700 2.939586
v -0.121490 6.157003 2.689933
v -0.338486 6.650476 2.896119
v -0.292206 4.563955 3.921033
v -0.292206 4.989103 4.134508
v -0.440093 5.378580 2.194792
v -0.440094 6.345876 2.736570
v 0.292205 4.563955 3.921033
v 0.292205 4.989103 4.134508
v 0.440094 5.378580 2.194793
v 0.440094 6.345876 2.736570
v -0.348976 5.587252 3.427042
v 0.000000 6.345876 2.736570
v 0.348976 5.587252 3.427043
v -0.000001 4.989103 4.134508
v -0.000000 5.587252 3.427043
v -0.579780 2.572466 2.763866
v -0.293306 5.521930 3.212293
v -0.579780 3.159525 0.973746
v -0.394757 6.287875 2.518502
v 0.579780 2.572466 2.763866
v 0.293306 5.521930 3.212293
v 0.579780 3.159525 0.973746
v 0.394757 6.287875 2.518502
v -0.906540 2.122191 2.614810
v -0.906540 2.124941 2.189320
v -0.487251 2.110817 2.605077
v -0.487251 2.113566 2.179588
v -1.001932 2.099548 -2.696338
v 1.001931 2.099548 -2.696338
v 0.951394 2.064806 2.680516
v -0.951394 2.064806 2.680514
v -0.978345 4.099506 -2.683417
v 0.978345 4.099506 -2.683414
v 0.787189 4.064764 2.693439
v -0.787189 4.064764 2.693438
v -0.950788 2.158776 -0.020498
v -1.041883 3.099527 -2.689878
v -0.965674 3.064785 2.686976
v -0.950052 4.005620 0.004517
v -0.950052 3.082156 -0.001450
v -1.041883 2.073492 1.336301
v -1.041883 3.599517 -2.686647
v -0.965674 3.564774 2.690207
v -1.041883 4.073450 1.349225
v -1.041883 2.090863 -1.352125
v -1.041883 2.599538 -2.693107
v -0.965674 2.564795 2.683745
v -1.041882 4.090820 -1.339203
v -1.041883 3.073471 1.342763
v -1.041883 3.090842 -1.345664
v -0.950052 3.543888 0.001533
v -0.950788 2.620508 -0.017514
v -1.041883 2.590852 -1.348894
v -1.041883 3.590831 -1.342433
v -1.041883 3.573460 1.345994
v -1.041883 2.573481 1.339532
v 0.950024 2.158692 -0.007417
v 1.041883 3.099527 -2.689876
v 0.965673 3.064785 2.686978
v 0.950024 4.005620 0.004517
v 0.950024 3.082156 -0.001450
v 1.041883 2.073491 1.336302
v 1.041883 3.599517 -2.686645
v 0.965673 3.564775 2.690208
v 1.041883 4.073450 1.349226
v 1.041883 2.090863 -1.352124
v 1.041883 2.599538 -2.693107
v 0.965673 2.564795 2.683747
v 1.041883 4.090821 -1.339201
v 1.041883 3.073470 1.342764
v 1.041883 3.090842 -1.345663
v 0.950024 2.620424 -0.004433
v 0.950024 3.543888 0.001533
v 1.041883 3.590831 -1.342432
v 1.041883 2.590852 -1.348894
v 1.041883 2.573481 1.339533
v 1.041883 3.573460 1.345995
v 0.090209 6.059772 2.975970
v 0.374445 6.626436 2.940890
v 0.121495 6.157003 2.689933
v 0.379199 6.641211 2.897423
v 0.386219 5.992409 2.985449
v 0.418316 6.616452 2.942294
v 0.417505 6.089639 2.699411
v 0.423071 6.631227 2.898828
v -0.906540 2.123566 2.402065
v -0.696895 2.119254 2.184454
v -0.487251 2.112192 2.392332
v -0.696895 2.116504 2.609943
v 0.700000 2.142883 -2.357567
v -0.700000 2.142883 -2.357567
v 0.704657 2.120723 2.399632
v -0.696895 2.117879 2.397199
v -0.907357 1.140261 2.603938
v -0.907120 -0.009753 2.615885
v -0.908836 1.136041 2.197734
v -0.908599 -0.013973 2.209681
v -0.490815 1.140331 2.602420
v -0.490579 -0.009683 2.614367
v -0.492294 1.136111 2.196217
v -0.492058 -0.013903 2.208164
v -0.908286 2.174909 2.594595
v -0.908069 1.024875 2.604578
v -0.908288 2.171383 2.188383
v -0.908071 1.021349 2.198365
v -0.491743 2.174987 2.594593
v -0.491525 1.024954 2.604575
v -0.491745 2.171461 2.188380
v -0.491528 1.021428 2.198362
v 0.485410 1.136906 2.582464
v 0.485410 -0.013147 2.575034
v 0.498281 1.139529 2.176449
v 0.498281 -0.010523 2.169018
v 0.901744 1.136820 2.595662
v 0.901745 -0.013232 2.588231
v 0.914615 1.139444 2.189646
v 0.914615 -0.010609 2.182215
v 0.491728 2.171874 2.595836
v 0.491728 1.021821 2.588405
v 0.491728 2.174499 2.189617
v 0.491728 1.024446 2.182186
v 0.908272 2.171874 2.595836
v 0.908272 1.021821 2.588405
v 0.908272 2.174499 2.189617
v 0.908272 1.024446 2.182186
v -0.908272 1.167575 -2.164087
v -0.908272 0.017522 -2.171518
v -0.908272 1.170200 -2.570306
v -0.908272 0.020147 -2.577737
v -0.491728 1.167575 -2.164087
v -0.491728 0.017522 -2.171518
v -0.491728 1.170200 -2.570306
v -0.491728 0.020147 -2.577737
v -0.908272 2.202587 -2.157399
v -0.908272 1.052534 -2.164830
v -0.908272 2.205211 -2.563619
v -0.908272 1.055158 -2.571050
v -0.491728 2.202587 -2.157399
v -0.491728 1.052534 -2.164830
v -0.491728 2.205211 -2.563619
v -0.491728 1.055158 -2.571050
v 0.491728 1.167575 -2.164086
v 0.491728 0.017522 -2.171517
v 0.491728 1.170200 -2.570306
v 0.491728 0.020148 -2.577737
v 0.908272 1.167575 -2.164086
v 0.908272 0.017522 -2.171517
v 0.908272 1.170200 -2.570306
v 0.908272 0.020148 -2.577737
v 0.491728 2.202587 -2.157399
v 0.491728 1.052534 -2.164830
v 0.491728 2.205212 -2.563619
v 0.491728 1.055159 -2.571050
v 0.908272 2.202587 -2.157399
v 0.908272 1.052534 -2.164830
v 0.908272 2.205212 -2.563619
v 0.908272 1.055159 -2.571050
vn -1.0000 -0.0000 -0.0000
vn 0.0000 0.8028 -0.5962
vn 1.0000 0.0000 0.0000
vn 0.0000 -0.8028 0.5962
vn 0.0000 -0.5962 -0.8028
vn 0.0000 0.5962 0.8028
vn -0.9930 0.0216 0.1160
vn -0.1078 0.3425 -0.9333
vn 0.9198 0.3910 0.0323
vn 0.0161 0.0698 0.9974
vn 0.1989 -0.9210 -0.3348
vn -0.1989 0.9210 0.3348
vn -0.9967 -0.0300 0.0754
vn 0.0000 0.4887 -0.8725
vn 0.9967 -0.0300 0.0754
vn -0.0000 -0.4487 0.8937
vn 0.0000 -0.9044 -0.4268
vn 0.0000 0.7636 0.6456
vn -0.0000 0.6731 0.7395
vn -0.9961 0.0542 0.0702
vn 0.0000 0.4428 -0.8966
vn 0.9961 0.0542 0.0702
vn 0.0000 -0.1503 0.9886
vn 0.0000 -0.9502 -0.3116
vn 0.0000 0.6713 0.7412
vn -0.0273 -0.9996 -0.0065
vn -0.0000 -1.0000 -0.0065
vn -0.0000 1.0000 0.0065
vn 0.0000 0.0065 -1.0000
vn 0.9773 0.1737 0.1214
vn -0.0000 -0.0065 1.0000
vn -0.9980 -0.0146 0.0618
vn -0.9984 -0.0004 0.0566
vn -0.9977 -0.0004 0.0682
vn -0.9977 -0.0004 0.0683
vn -0.9977 -0.0006 0.0682
vn -0.9991 -0.0398 -0.0151
vn -0.9977 0.0635 -0.0232
vn -0.9773 0.1737 0.1214
vn -0.9977 0.0004 -0.0682
vn -0.9977 0.0021 -0.0675
vn -0.9978 0.0004 -0.0670
vn 0.9984 -0.0004 0.0566
vn 0.9977 -0.0004 0.0682
vn 0.9977 0.0635 -0.0232
vn 0.9991 -0.0398 -0.0151
vn 0.9980 -0.0147 0.0618
vn 0.9977 0.0004 -0.0682
vn -0.8911 0.4504 0.0556
vn 0.1078 0.3425 -0.9333
vn 0.9946 -0.0447 0.0936
vn -0.0161 0.0698 0.9974
vn -0.1989 -0.9210 -0.3348
vn 0.1989 0.9210 0.3348
vn 1.0000 0.0002 -0.0036
vn 0.0036 0.0104 0.9999
vn -1.0000 -0.0002 0.0036
vn -0.0036 -0.0104 -0.9999
vn 0.0002 -0.9999 0.0104
vn -0.0002 0.9999 -0.0104
vn 1.0000 0.0002 -0.0000
vn 0.0000 0.0087 1.0000
vn -1.0000 -0.0002 0.0000
vn -0.0000 -0.0087 -1.0000
vn 0.0002 -1.0000 0.0087
vn -0.0002 1.0000 -0.0087
vn 0.9995 -0.0002 0.0317
vn -0.0317 -0.0065 0.9995
vn -0.9995 0.0002 -0.0317
vn 0.0317 0.0065 -0.9995
usemtl Material
s off
f 1//1 2//1 4//1 3//1
f 3//2 4//2 8//2 7//2
f 7//3 8//3 6//3 5//3
f 5//4 6//4 2//4 1//4
f 3//5 7//5 5//5 1//5
f 8//6 4//6 2//6 6//6
f 9//7 10//7 12//7 11//7
f 11//8 12//8 16//8 15//8
f 15//9 16//9 14//9 13//9
f 13//10 14//10 10//10 9//10
f 11//11 15//11 13//11 9//11
f 16//12 12//12 10//12 14//12
f 17//13 18//13 25//13 20//13 19//13
f 19//14 20//14 26//14 24//14 23//14
f 23//15 24//15 27//15 22//15 21//15
f 21//16 22//16 28//16 18//16 17//16
f 19//17 23//17 21//17 17//17
f 29//18 25//18 18//18 28//18
f 27//18 29//18 28//18 22//18
f 24//19 26//19 29//19 27//19
f 26//19 20//19 25//19 29//19
f 30//20 31//20 33//20 32//20
f 32//21 33//21 37//21 36//21
f 36//22 37//22 35//22 34//22
f 34//23 35//23 31//23 30//23
f 32//24 36//24 34//24 30//24
f 37//25 33//25 31//25 35//25
f 107//26 102//26 40//26 103//26
f 42//27 43//27 80//27 71//27 76//27 44//27 45//27 55//27 50//27 59//27
f 46//28 62//28 53//28 58//28 49//28 48//28 79//28 74//28 83//28 47//28
f 42//29 60//29 51//29 56//29 46//29 47//29 77//29 72//29 81//29 43//29
f 91//30 79//30 48//30 78//30
f 44//31 82//31 73//31 78//31 48//31 49//31 57//31 52//31 61//31 45//31
f 70//32 55//32 45//32 61//32
f 69//33 63//33 52//33 57//33
f 68//34 64//34 54//34 65//34
f 67//35 59//35 50//35 66//35
f 64//36 67//36 66//36 54//36
f 51//1 60//1 67//1 64//1
f 60//37 42//37 59//37 67//37
f 62//34 68//34 65//34 53//34
f 46//38 56//38 68//38 62//38
f 56//1 51//1 64//1 68//1
f 58//39 69//39 57//39 49//39
f 53//40 65//40 69//40 58//40
f 65//40 54//40 63//40 69//40
f 63//33 70//33 61//33 52//33
f 54//41 66//41 70//41 63//41
f 66//42 50//42 55//42 70//42
f 90//43 84//43 73//43 82//43
f 89//44 85//44 75//44 86//44
f 88//44 83//44 74//44 87//44
f 85//44 88//44 87//44 75//44
f 72//3 77//3 88//3 85//3
f 77//45 47//45 83//45 88//45
f 80//44 89//44 86//44 71//44
f 43//46 81//46 89//46 80//46
f 81//3 72//3 85//3 89//3
f 76//47 90//47 82//47 44//47
f 71//48 86//48 90//48 76//48
f 86//48 75//48 84//48 90//48
f 84//43 91//43 78//43 73//43
f 75//48 87//48 91//48 84//48
f 87//48 74//48 79//48 91//48
f 92//49 93//49 95//49 94//49
f 94//50 95//50 99//50 98//50
f 98//51 99//51 97//51 96//51
f 96//52 97//52 93//52 92//52
f 94//53 98//53 96//53 92//53
f 99//54 95//54 93//54 97//54
f 100//26 107//26 103//26 38//26
f 39//26 101//26 107//26 100//26
f 101//26 41//26 102//26 107//26
f 108//55 109//55 111//55 110//55
f 110//56 111//56 115//56 114//56
f 114//57 115//57 113//57 112//57
f 112//58 113//58 109//58 108//58
f 110//59 114//59 112//59 108//59
f 115//60 111//60 109//60 113//60
f 116//61 117//61 119//61 118//61
f 118//62 119//62 123//62 122//62
f 122//63 123//63 121//63 120//63
f 120//64 121//64 117//64 116//64
f 118//65 122//65 120//65 116//65
f 123//66 119//66 117//66 121//66
f 124//67 125//67 127//67 126//67
f 126//68 127//68 131//68 130//68
f 130//69 131//69 129//69 128//69
f 128//70 129//70 125//70 124//70
f 126//27 130//27 128//27 124//27
f 131//28 127//28 125//28 129//28
f 132//3 133//3 135//3 134//3
f 134//31 135//31 139//31 138//31
f 138//1 139//1 137//1 136//1
f 136//29 137//29 133//29 132//29
f 134//27 138//27 136//27 132//27
f 139//28 135//28 133//28 137//28
f 140//3 141//3 143//3 142//3
f 142//31 143//31 147//31 146//31
f 146//1 147//1 145//1 144//1
f 144//29 145//29 141//29 140//29
f 142//27 146//27 144//27 140//27
f 147//28 143//28 141//28 145//28
f 148//3 149//3 151//3 150//3
f 150//31 151//31 155//31 154//31
f 154//1 155//1 153//1 152//1
f 152//29 153//29 149//29 148//29
f 150//27 154//27 152//27 148//27
f 155//28 151//28 149//28 153//28
f 156//3 157//3 159//3 158//3
f 158//31 159//31 163//31 162//31
f 162//1 163//1 161//1 160//1
f 160//29 161//29 157//29 156//29
f 158//27 162//27 160//27 156//27
f 163//28 159//28 157//28 161//28
f 164//3 165//3 167//3 166//3
f 166//31 167//31 171//31 170//31
f 170//1 171//1 169//1 168//1
f 168//29 169//29 165//29 164//29
f 166//27 170//27 168//27 164//27
f 171//28 167//28 165//28 169//28
